<svg xmlns="http://www.w3.org/2000/svg" xmlns:xlink="http://www.w3.org/1999/xlink" version="1.1" x="0px" y="0px" viewBox="0 0 67.347 133.95749999999998" enable-background="new 0 0 67.347 107.166" xml:space="preserve"><g><g><g><path d="M43.566,71.444c-0.125-0.087-0.178-0.25-0.119-0.396c0.064-0.164,6.498-16.488,10.324-29.026     c0.043-0.145,0.178-0.241,0.329-0.237c0.151,0.003,0.279,0.108,0.314,0.255c1.887,7.739-9.865,28.42-10.367,29.297     c-0.087,0.152-0.276,0.211-0.436,0.135C43.597,71.464,43.581,71.455,43.566,71.444z M53.95,43.701     c-2.494,7.954-5.857,17.065-7.946,22.57C49.156,60.129,54.106,49.513,53.95,43.701z"/></g><g><path d="M46.488,69.305C46.488,69.304,46.487,69.304,46.488,69.305c-0.139-0.098-0.183-0.283-0.104-0.432     c0.104-0.193,10.432-19.399,19.11-27.098c0.115-0.103,0.286-0.112,0.413-0.024c0,0,0.001,0.001,0.001,0.001     c0.127,0.089,0.176,0.254,0.117,0.398c-4.335,10.762-18.952,26.942-19.099,27.105C46.814,69.379,46.627,69.401,46.488,69.305z      M64.764,43.377c-6.322,6.235-13.249,17.788-16.255,23.06C52.463,61.833,61.017,51.428,64.764,43.377z"/></g><g><path d="M37.425,81.381c-0.121-0.084-0.175-0.242-0.124-0.386c0,0,7.114-19.989,9.726-27.342c0.056-0.158,0.221-0.25,0.385-0.215     c0.164,0.035,0.276,0.186,0.264,0.354c-0.822,10.25-9.673,27.299-9.763,27.47c-0.081,0.156-0.27,0.222-0.43,0.152     C37.462,81.405,37.442,81.394,37.425,81.381z M46.515,57.089c-1.878,5.285-4.624,13.003-6.501,18.279     C42.261,70.446,45.286,63.14,46.515,57.089z"/></g><g><path d="M30.776,91.958c-0.119-0.083-0.174-0.237-0.126-0.38c0.049-0.145,4.894-14.604,10.526-29.594     c0.06-0.157,0.226-0.246,0.39-0.208c0.161,0.037,0.272,0.191,0.257,0.359c-1.095,11.007-10.463,29.515-10.558,29.7     c-0.08,0.156-0.266,0.225-0.427,0.157C30.815,91.983,30.795,91.971,30.776,91.958z M40.649,65.309     c-3.057,8.248-5.785,16.039-7.498,21.006C35.616,80.896,39.227,72.257,40.649,65.309z"/></g><g><path d="M26.922,96.083c-0.099-0.07-0.156-0.191-0.14-0.317c0.087-0.662,2.175-16.289,8.192-22.986     c0.105-0.117,0.279-0.145,0.416-0.066c0.135,0.078,0.199,0.243,0.151,0.393c-3.795,11.755-8.074,22.715-8.117,22.825     c-0.062,0.157-0.23,0.244-0.395,0.202C26.991,96.123,26.954,96.106,26.922,96.083z M34.324,74.685     c-3.509,5.026-5.467,13.316-6.332,17.889C29.419,88.788,31.92,81.993,34.324,74.685z"/></g><g><path d="M42.592,75.657c-0.015-0.01-0.028-0.021-0.042-0.035c-0.125-0.123-0.135-0.322-0.021-0.456     c0.666-0.786,16.422-19.264,24.443-20.251c0.15-0.019,0.293,0.066,0.351,0.206c0.057,0.14,0.013,0.3-0.108,0.392     c-10.672,8.094-24.074,20-24.208,20.12C42.888,75.737,42.717,75.744,42.592,75.657z M65.552,55.943     c-5.604,1.934-14.06,10.4-18.855,15.571C51.244,67.575,58.803,61.143,65.552,55.943z"/></g><g><path d="M35.462,84.497c-0.021-0.015-0.041-0.032-0.06-0.052c-0.116-0.131-0.111-0.33,0.012-0.456     c0.132-0.135,13.28-13.506,22.604-17.37c0.155-0.064,0.334-0.003,0.418,0.142c0.084,0.146,0.047,0.331-0.086,0.433     C52.3,71.84,35.856,84.487,35.856,84.487C35.739,84.578,35.579,84.578,35.462,84.497z M55.234,68.743     c-5.212,2.952-11.007,7.891-14.884,11.444C44.667,76.869,50.918,72.061,55.234,68.743z"/></g><g><path d="M33.174,90.603c-0.021-0.015-0.041-0.032-0.059-0.051c-0.116-0.131-0.112-0.33,0.01-0.456     c0.133-0.137,13.368-13.701,22.404-17.894c0.153-0.071,0.334-0.015,0.424,0.125c0.09,0.142,0.061,0.329-0.069,0.436     c-11.225,9.292-22.205,17.747-22.315,17.832C33.451,90.684,33.291,90.685,33.174,90.603z M52.761,74.468     c-5.132,3.145-10.929,8.233-14.787,11.847C41.66,83.421,47.066,79.134,52.761,74.468z"/></g><g><path d="M23.965,99.855c-0.04-0.028-0.074-0.065-0.099-0.109c-0.085-0.147-0.045-0.334,0.092-0.434     c0.098-0.072,9.892-7.265,20.597-14.209c0.132-0.086,0.308-0.072,0.42,0.046c0.111,0.113,0.128,0.288,0.04,0.42     c-5.132,7.699-20.095,14.054-20.729,14.321C24.177,99.935,24.057,99.919,23.965,99.855z M43.297,86.722     c-6.646,4.361-12.755,8.674-16.151,11.109C31.462,95.722,39.189,91.523,43.297,86.722z"/></g></g><g><g><path d="M45.23,38.85c-0.16-0.105-0.211-0.315-0.119-0.482c0.535-0.959,13.218-23.519,21.489-26.104     c0.157-0.049,0.325,0.01,0.414,0.15c0.089,0.139,0.074,0.318-0.036,0.44c-9.539,10.602-21.145,25.76-21.261,25.912     c-0.104,0.136-0.285,0.179-0.437,0.112C45.264,38.87,45.246,38.86,45.23,38.85z M48.734,33.702     c3.96-5.036,10.564-13.284,16.578-20.072C59.808,16.746,52.69,27.316,48.734,33.702z"/></g><g><path d="M45.435,34.516c0.069-0.228,6.948-22.933,14.546-33.012c0.102-0.136,0.283-0.183,0.438-0.115c0,0,0.001,0,0.002,0     c0.153,0.07,0.24,0.234,0.209,0.398c-2.306,12.41-14.41,32.815-14.533,33.019c-0.093,0.158-0.291,0.22-0.458,0.147     c0,0-0.001,0-0.001,0C45.469,34.878,45.383,34.69,45.435,34.516z M47.174,31.46c3.228-5.761,10.108-18.7,12.372-28.092     C54.146,11.379,49.246,25.191,47.174,31.46z"/></g><g><path d="M39.403,50.143c-0.155-0.11-0.2-0.324-0.1-0.485c0.108-0.18,11.032-17.997,20.124-24.516     c0.15-0.107,0.355-0.086,0.478,0.046c0.126,0.133,0.133,0.338,0.017,0.48c-5.388,6.56-20.026,24.408-20.026,24.408     c-0.106,0.128-0.283,0.167-0.43,0.102C39.444,50.168,39.422,50.157,39.403,50.143z M43.618,44.391     c3.863-4.71,9.517-11.601,13.388-16.317C52.057,32.614,46.944,39.534,43.618,44.391z"/></g><g><path d="M33.271,62.272c-0.153-0.112-0.194-0.324-0.094-0.486c0.121-0.192,12.113-19.311,21.759-26.508     c0.147-0.109,0.353-0.091,0.479,0.038c0.127,0.131,0.138,0.336,0.024,0.48C44.63,49.458,33.87,62.088,33.764,62.214     c-0.106,0.125-0.28,0.161-0.426,0.096C33.316,62.301,33.294,62.289,33.271,62.272z M37.266,56.93     c3.669-4.385,9.398-11.299,15.371-18.777C46.959,43.378,40.932,51.592,37.266,56.93z"/></g><g><path d="M31.549,68.146c-0.131-0.129-0.145-0.336-0.033-0.481c0.078-0.101,7.892-10.241,16.719-20.375     c0.113-0.129,0.304-0.161,0.452-0.079c0.149,0.083,0.22,0.261,0.171,0.426c-2.866,9.367-16.259,20.083-16.828,20.535     c-0.107,0.086-0.253,0.101-0.373,0.047C31.617,68.201,31.58,68.176,31.549,68.146z M34.327,65.251     c3.775-3.373,10.403-9.85,13.12-15.941C41.984,55.652,37.055,61.797,34.327,65.251z"/></g><g><path d="M41.691,41.75c0.036-0.191,3.612-19.366,5.168-33.854c0.018-0.165,0.143-0.296,0.304-0.321     c0.163-0.025,0.321,0.061,0.389,0.211c3.583,8.03-4.799,33.085-5.157,34.147c-0.062,0.181-0.252,0.283-0.437,0.235     c-0.021-0.005-0.039-0.011-0.056-0.019C41.75,42.083,41.661,41.919,41.691,41.75z M43.459,35.999     c2.129-7.371,5.275-20.004,3.933-26.312C46.333,18.895,44.579,29.549,43.459,35.999z"/></g><g><path d="M37.45,53.383c0,0,2.562-22.423,3.498-30.67c0.021-0.181,0.172-0.319,0.354-0.322s0.34,0.129,0.366,0.309     c1.631,10.858-3.454,30.618-3.505,30.816c-0.048,0.185-0.23,0.301-0.419,0.267c-0.029-0.006-0.057-0.015-0.082-0.026     C37.521,53.693,37.432,53.543,37.45,53.383z M38.937,46.781c1.137-5.608,2.487-13.781,2.314-20.296     C40.581,32.371,39.607,40.896,38.937,46.781z"/></g><g><path d="M33.043,58.942c0.017-0.15,1.735-15.13,4.098-30.807c0.026-0.181,0.184-0.312,0.366-0.309     c0.182,0.005,0.335,0.143,0.355,0.325c1.162,10.775-4.053,30.725-4.106,30.924c-0.048,0.184-0.231,0.299-0.42,0.265     c-0.027-0.006-0.054-0.014-0.079-0.026C33.114,59.251,33.025,59.103,33.043,58.942z M34.56,52.435     c1.202-5.624,2.691-13.882,2.743-20.43C36.15,39.931,35.188,47.376,34.56,52.435z"/></g><g><path d="M29.588,72.811c-0.107-0.74-2.58-18.253,1.716-27.356c0.074-0.156,0.246-0.239,0.413-0.199     c0.174,0.039,0.285,0.194,0.279,0.366c-0.465,13.875-1.674,27.04-1.687,27.171c-0.015,0.184-0.167,0.326-0.353,0.329     c-0.055,0.002-0.108-0.009-0.156-0.03C29.688,73.041,29.607,72.938,29.588,72.811z M29.902,68.991     c0.364-4.533,0.954-12.647,1.29-21.289C29.021,54.225,29.445,63.784,29.902,68.991z"/></g></g><g><g><path d="M12.705,55.543c-0.229,0-0.433-0.156-0.486-0.384c-0.061-0.256-6.149-25.783-12.194-44.435     c-0.069-0.214,0.013-0.449,0.201-0.572c0.188-0.125,0.436-0.107,0.604,0.043c8.939,7.875,12.237,43.299,12.373,44.803     c0.023,0.261-0.158,0.496-0.418,0.539C12.759,55.541,12.731,55.543,12.705,55.543z M1.684,12.63     c3.752,11.89,7.429,25.942,9.581,34.482C9.87,36.88,6.852,19.624,1.684,12.63z"/></g><g><path d="M14.456,50.417c-0.001,0-0.002,0-0.002,0c-0.253-0.001-0.465-0.19-0.494-0.441c-0.039-0.325-3.819-32.719,0.23-49.592     C14.244,0.158,14.445,0,14.677,0c0.001,0,0.002,0,0.002,0c0.232,0.001,0.434,0.162,0.485,0.388     c3.898,16.909-0.171,49.268-0.212,49.592C14.92,50.229,14.708,50.417,14.456,50.417z M14.666,2.973     c-2.415,13.061-1.017,33.158-0.188,42.198C15.386,36.139,16.964,16.055,14.666,2.973z"/></g><g><path d="M13.683,72.987c-0.222,0-0.422-0.147-0.482-0.368c0,0-8.393-30.604-11.486-41.856c-0.066-0.242,0.057-0.496,0.288-0.593     c0.23-0.098,0.498-0.009,0.626,0.208c7.77,13.274,11.514,41.759,11.551,42.045c0.033,0.26-0.141,0.502-0.397,0.554     C13.748,72.984,13.715,72.987,13.683,72.987z M4.029,35.415c2.222,8.09,5.463,19.906,7.679,27.981     C10.249,55.437,7.703,43.886,4.029,35.415z"/></g><g><path d="M14.586,91.65c-0.218,0-0.416-0.142-0.479-0.358c-0.064-0.219-6.504-22.099-12.432-45.304     C1.612,45.745,1.74,45.493,1.974,45.4c0.229-0.093,0.498,0,0.622,0.22c8.084,14.435,12.442,45.152,12.485,45.46     c0.036,0.259-0.134,0.503-0.39,0.558C14.656,91.646,14.62,91.65,14.586,91.65z M3.875,50.516     c3.313,12.731,6.638,24.622,8.792,32.18C11.05,73.941,8.079,60.255,3.875,50.516z"/></g><g><path d="M13.393,100.009c-0.182,0-0.355-0.1-0.443-0.269C12.488,98.854,1.67,77.903,3.313,64.538     c0.028-0.234,0.218-0.417,0.452-0.437c0.232-0.02,0.453,0.126,0.522,0.352c5.412,17.665,9.55,34.769,9.591,34.939     c0.059,0.246-0.074,0.497-0.311,0.585C13.511,99.999,13.451,100.009,13.393,100.009z M4.146,67.43     c0.001,9.168,4.699,21.011,7.553,27.358C10.207,88.924,7.456,78.451,4.146,67.43z"/></g><g><path d="M15.117,61.543c-0.026,0-0.054-0.002-0.082-0.007c-0.259-0.043-0.44-0.279-0.416-0.54     c0.145-1.535,3.643-37.685,12.634-45.764c0.168-0.151,0.416-0.17,0.606-0.047c0.189,0.123,0.272,0.358,0.203,0.573     c-6.156,19.062-12.396,45.14-12.459,45.401C15.549,61.387,15.346,61.543,15.117,61.543z M26.392,17.709     c-5.217,7.17-8.336,24.792-9.788,35.239C18.807,44.223,22.567,29.863,26.392,17.709z"/></g><g><path d="M13.942,78.488c-0.038,0-0.077-0.004-0.116-0.014c-0.256-0.062-0.42-0.31-0.377-0.568     c0.046-0.278,4.72-27.933,12.845-40.655c0.136-0.212,0.406-0.29,0.634-0.184c0.228,0.106,0.341,0.365,0.265,0.604     C23.753,48.55,14.419,78.139,14.419,78.139C14.353,78.351,14.156,78.488,13.942,78.488z M24.7,42.239     c-3.863,8.083-6.741,19.101-8.452,26.778C18.698,61.252,22.248,50.004,24.7,42.239z"/></g><g><path d="M16.365,87.935c-0.038,0-0.077-0.004-0.115-0.014c-0.256-0.061-0.42-0.308-0.378-0.567     c0.045-0.281,4.661-28.248,12.151-41.127c0.128-0.218,0.396-0.304,0.627-0.209c0.231,0.098,0.354,0.352,0.287,0.594     C23.13,67.618,16.904,87.388,16.842,87.585C16.775,87.797,16.579,87.935,16.365,87.935z M26.569,51.377     c-3.601,8.251-6.352,19.455-7.99,27.19C20.622,71.862,23.581,61.975,26.569,51.377z"/></g><g><path d="M12.995,107.166c-0.072,0-0.146-0.016-0.215-0.049c-0.229-0.109-0.34-0.372-0.259-0.612     c0.059-0.172,5.91-17.379,13.091-35.06c0.088-0.22,0.315-0.352,0.554-0.304c0.233,0.043,0.404,0.244,0.409,0.481     c0.3,13.834-12.607,34.44-13.157,35.311C13.323,107.083,13.162,107.166,12.995,107.166z M25.456,74.508     c-4.414,11.038-8.214,21.558-10.294,27.453C18.65,95.678,24.531,83.913,25.456,74.508z"/></g></g></g><text x="0" y="122.166" fill="#000000" font-size="5px" font-weight="bold" font-family="'Helvetica Neue', Helvetica, Arial-Unicode, Arial, Sans-serif">Created by Chiara Rossi</text><text x="0" y="127.166" fill="#000000" font-size="5px" font-weight="bold" font-family="'Helvetica Neue', Helvetica, Arial-Unicode, Arial, Sans-serif">from the Noun Project</text></svg>